# xmcd
# 
# Track frame offsets:
#     187
#     15150
#     33895
#     52360
#     70887
#     86577
#     105590
#     121607
#     138067
#     159032
#     178820
# 
# Disc length: 2525
# 
# Revision: 2
# Processed by: cddbd v1.5.2PL0 Copyright (c) Steve Scherf et al.
# Submitted via: fre:ac v1.0.31
# 
DISCID=7d09db0b
DTITLE=竹内まりや - Love Songs
DYEAR=1990
DGENRE=JPop
TTITLE0=ＦＬＹ　ＡＷＡＹ
TTITLE1=さよならの夜明け
TTITLE2=磁気嵐
TTITLE3=象牙海岸
TTITLE4=五線紙
TTITLE5=ＬＯＮＥＬＹ　ＷＩＮＤ
TTITLE6=恋の終わりに
TTITLE7=待っているわ
TTITLE8=ＳＥＰＴＥＭＢＥＲ
TTITLE9=不思議なピーチパイ
TTITLE10=ｌｉｔｔｌｅ　ｌｕｌｌａｂｙ
EXTD=YEAR: 1990
EXTT0=
EXTT1=
EXTT2=
EXTT3=
EXTT4=
EXTT5=
EXTT6=
EXTT7=
EXTT8=
EXTT9=
EXTT10=
PLAYORDER=
